<svg width="584" height="440" viewBox="0 0 584 440" fill="none" xmlns="http://www.w3.org/2000/svg">
<rect x="121" y="123" width="342" height="194" fill="#CCB89B" fill-opacity="0.5" stroke="#4CB443" stroke-width="2"/>
<g clip-path="url(#clip0_34_257)">
<rect x="584" y="275" width="105" height="110" rx="20" transform="rotate(-180 584 275)" fill="white"/>
<rect x="584" y="275" width="29" height="147" transform="rotate(-180 584 275)" fill="#CCB89B" fill-opacity="0.8"/>
<rect x="584" y="275" width="140" height="147" transform="rotate(-180 584 275)" fill="#CCB89B" fill-opacity="0.4"/>
<rect x="408" y="275" width="24.5" height="147" transform="rotate(-90 408 275)" fill="#CCB89B" fill-opacity="0.8"/>
<rect x="408" y="189" width="24.5" height="147" transform="rotate(-90 408 189)" fill="#CCB89B" fill-opacity="0.8"/>
</g>
<g clip-path="url(#clip1_34_257)">
<rect x="418" width="105" height="110" rx="20" transform="rotate(90 418 0)" fill="white"/>
<rect x="418" width="29" height="147" transform="rotate(90 418 0)" fill="#CCB89B" fill-opacity="0.8"/>
<rect x="418" width="140" height="147" transform="rotate(90 418 0)" fill="#CCB89B" fill-opacity="0.4"/>
<rect x="418" y="176" width="24.5" height="147" transform="rotate(-180 418 176)" fill="#CCB89B" fill-opacity="0.8"/>
</g>
<g clip-path="url(#clip2_34_257)">
<rect x="235" y="440" width="105" height="110" rx="20" transform="rotate(-90 235 440)" fill="white"/>
<rect x="235" y="440" width="29" height="147" transform="rotate(-90 235 440)" fill="#CCB89B" fill-opacity="0.8"/>
<rect x="235" y="440" width="140" height="147" transform="rotate(-90 235 440)" fill="#CCB89B" fill-opacity="0.4"/>
<rect x="235" y="264" width="24.5" height="147" fill="#CCB89B" fill-opacity="0.8"/>
<rect x="321" y="264" width="24.5" height="147" fill="#CCB89B" fill-opacity="0.8"/>
</g>
<g clip-path="url(#clip3_34_257)">
<rect x="345" width="105" height="110" rx="20" transform="rotate(90 345 0)" fill="white"/>
<rect x="345" width="29" height="147" transform="rotate(90 345 0)" fill="#CCB89B" fill-opacity="0.8"/>
<rect x="345" width="140" height="147" transform="rotate(90 345 0)" fill="#CCB89B" fill-opacity="0.4"/>
</g>
<g clip-path="url(#clip4_34_257)">
<rect x="268" width="105" height="110" rx="20" transform="rotate(90 268 0)" fill="white"/>
<rect x="268" width="29" height="147" transform="rotate(90 268 0)" fill="#CCB89B" fill-opacity="0.8"/>
<rect x="268" width="140" height="147" transform="rotate(90 268 0)" fill="#CCB89B" fill-opacity="0.4"/>
<rect x="182" y="176" width="24.5" height="147" transform="rotate(-180 182 176)" fill="#CCB89B" fill-opacity="0.8"/>
</g>
<g clip-path="url(#clip5_34_257)">
<rect y="205" width="105" height="110" rx="20" fill="white"/>
<rect y="205" width="29" height="147" fill="#CCB89B" fill-opacity="0.8"/>
<rect y="205" width="140" height="147" fill="#CCB89B" fill-opacity="0.4"/>
<rect x="176" y="291" width="24.5" height="147" transform="rotate(90 176 291)" fill="#CCB89B" fill-opacity="0.8"/>
</g>
<g clip-path="url(#clip6_34_257)">
<rect y="128" width="105" height="110" rx="20" fill="white"/>
<rect y="128" width="29" height="147" fill="#CCB89B" fill-opacity="0.8"/>
<rect y="128" width="140" height="147" fill="#CCB89B" fill-opacity="0.4"/>
<rect x="176" y="128" width="24.5" height="147" transform="rotate(90 176 128)" fill="#CCB89B" fill-opacity="0.8"/>
</g>
<path d="M272.898 175.516L282.742 193.348V184.852C282.742 182.104 282.84 180.177 283.035 179.07C283.243 177.951 283.771 177.033 284.617 176.316C285.464 175.6 286.518 175.242 287.781 175.242C288.771 175.242 289.546 175.49 290.105 175.984C290.665 176.479 290.945 177.046 290.945 177.684C290.945 178.204 290.75 178.667 290.359 179.07C289.982 179.461 289.493 179.656 288.895 179.656C288.322 179.656 287.755 179.48 287.195 179.129C286.544 178.725 286.082 178.523 285.809 178.523C285.314 178.523 284.962 178.777 284.754 179.285C284.559 179.78 284.461 180.945 284.461 182.781V202.605H283.582L271.492 180.984V193.719C271.492 196.557 271.316 198.504 270.965 199.559C270.613 200.613 270.014 201.388 269.168 201.883C268.322 202.365 267.397 202.605 266.395 202.605C265.314 202.605 264.513 202.358 263.992 201.863C263.484 201.368 263.23 200.815 263.23 200.203C263.23 199.643 263.426 199.194 263.816 198.855C264.22 198.504 264.708 198.328 265.281 198.328C265.802 198.328 266.388 198.504 267.039 198.855C267.768 199.246 268.27 199.441 268.543 199.441C269.025 199.441 269.35 199.116 269.52 198.465C269.689 197.814 269.773 196.349 269.773 194.07V180.457C269.773 178.999 269.682 178.048 269.5 177.605C269.318 177.163 268.947 176.831 268.387 176.609C267.84 176.375 267.033 176.251 265.965 176.238V175.516H272.898ZM293.523 183.562C295.073 183.562 296.492 184.103 297.781 185.184C299.07 186.251 299.715 187.801 299.715 189.832C299.715 191.642 299.168 193.1 298.074 194.207C296.98 195.301 295.691 195.848 294.207 195.848C292.527 195.848 291.076 195.229 289.852 193.992C288.641 192.742 288.035 191.199 288.035 189.363C288.035 187.788 288.53 186.427 289.52 185.281C290.522 184.135 291.857 183.562 293.523 183.562ZM293.387 184.48C291.837 184.48 291.062 185.626 291.062 187.918C291.062 189.624 291.408 191.225 292.098 192.723C292.801 194.207 293.667 194.949 294.695 194.949C296.141 194.949 296.863 193.875 296.863 191.727C296.863 190.242 296.557 188.667 295.945 187C295.333 185.32 294.48 184.48 293.387 184.48ZM288.035 199.812H299.715V202H288.035V199.812ZM305.77 178.113L312.215 174.969H312.859V197.332C312.859 198.816 312.918 199.741 313.035 200.105C313.165 200.47 313.426 200.75 313.816 200.945C314.207 201.141 315.001 201.251 316.199 201.277V202H306.238V201.277C307.488 201.251 308.296 201.147 308.66 200.965C309.025 200.77 309.279 200.516 309.422 200.203C309.565 199.878 309.637 198.921 309.637 197.332V183.035C309.637 181.108 309.572 179.871 309.441 179.324C309.35 178.908 309.181 178.602 308.934 178.406C308.699 178.211 308.413 178.113 308.074 178.113C307.592 178.113 306.922 178.315 306.062 178.719L305.77 178.113ZM200.066 238.098H207.801V234.309C207.801 233.176 207.755 232.44 207.664 232.102C207.573 231.75 207.345 231.457 206.98 231.223C206.629 230.975 205.997 230.852 205.086 230.852V230.109H213.738V230.852C212.931 230.852 212.339 230.943 211.961 231.125C211.596 231.307 211.349 231.574 211.219 231.926C211.089 232.264 211.023 233.059 211.023 234.309V243.801C211.023 244.934 211.069 245.682 211.16 246.047C211.264 246.411 211.505 246.711 211.883 246.945C212.26 247.167 212.879 247.277 213.738 247.277V248H205.086V247.277C206.167 247.277 206.889 247.082 207.254 246.691C207.618 246.288 207.801 245.324 207.801 243.801V239.367H200.066V243.801C200.066 244.934 200.112 245.682 200.203 246.047C200.307 246.411 200.548 246.711 200.926 246.945C201.303 247.167 201.922 247.277 202.781 247.277V248H194.129V247.277C195.288 247.277 196.03 247.069 196.355 246.652C196.681 246.223 196.844 245.272 196.844 243.801V234.309C196.844 233.176 196.792 232.427 196.688 232.062C196.596 231.698 196.362 231.405 195.984 231.184C195.607 230.962 194.988 230.852 194.129 230.852V230.109H202.781V230.852C201.974 230.852 201.382 230.943 201.004 231.125C200.639 231.307 200.392 231.574 200.262 231.926C200.132 232.264 200.066 233.059 200.066 234.309V238.098ZM226.023 245.422C224.188 246.841 223.035 247.661 222.566 247.883C221.863 248.208 221.115 248.371 220.32 248.371C219.083 248.371 218.061 247.948 217.254 247.102C216.46 246.255 216.062 245.142 216.062 243.762C216.062 242.889 216.258 242.134 216.648 241.496C217.182 240.611 218.107 239.777 219.422 238.996C220.75 238.215 222.951 237.264 226.023 236.145V235.441C226.023 233.658 225.737 232.434 225.164 231.77C224.604 231.105 223.784 230.773 222.703 230.773C221.883 230.773 221.232 230.995 220.75 231.438C220.255 231.88 220.008 232.388 220.008 232.961L220.047 234.094C220.047 234.693 219.891 235.155 219.578 235.48C219.279 235.806 218.882 235.969 218.387 235.969C217.905 235.969 217.508 235.799 217.195 235.461C216.896 235.122 216.746 234.66 216.746 234.074C216.746 232.954 217.319 231.926 218.465 230.988C219.611 230.051 221.219 229.582 223.289 229.582C224.878 229.582 226.18 229.849 227.195 230.383C227.964 230.786 228.53 231.418 228.895 232.277C229.129 232.837 229.246 233.983 229.246 235.715V241.789C229.246 243.495 229.279 244.543 229.344 244.934C229.409 245.311 229.513 245.565 229.656 245.695C229.812 245.826 229.988 245.891 230.184 245.891C230.392 245.891 230.574 245.845 230.73 245.754C231.004 245.585 231.531 245.109 232.312 244.328V245.422C230.854 247.375 229.461 248.352 228.133 248.352C227.495 248.352 226.987 248.13 226.609 247.688C226.232 247.245 226.036 246.49 226.023 245.422ZM226.023 244.152V237.336C224.057 238.117 222.788 238.671 222.215 238.996C221.186 239.569 220.451 240.168 220.008 240.793C219.565 241.418 219.344 242.102 219.344 242.844C219.344 243.781 219.624 244.562 220.184 245.188C220.743 245.799 221.388 246.105 222.117 246.105C223.107 246.105 224.409 245.454 226.023 244.152ZM246.434 221.516H260.633V222.258L251.805 248.547H249.617L257.527 224.699H250.242C248.771 224.699 247.723 224.875 247.098 225.227C246.004 225.826 245.125 226.75 244.461 228L243.895 227.785L246.434 221.516ZM286.98 231.379H279.246V243.801C279.246 245.181 279.318 246.008 279.461 246.281C279.604 246.542 279.826 246.776 280.125 246.984C280.438 247.18 281.049 247.277 281.961 247.277V248H273.309V247.277C274.467 247.277 275.21 247.069 275.535 246.652C275.861 246.223 276.023 245.272 276.023 243.801V234.309C276.023 232.915 275.952 232.095 275.809 231.848C275.665 231.587 275.444 231.359 275.145 231.164C274.845 230.956 274.233 230.852 273.309 230.852V230.109H292.918V230.852C292.046 230.852 291.46 230.943 291.16 231.125C290.861 231.294 290.626 231.509 290.457 231.77C290.288 232.03 290.203 232.876 290.203 234.309V243.801C290.203 245.181 290.275 246.008 290.418 246.281C290.561 246.542 290.783 246.776 291.082 246.984C291.395 247.18 292.007 247.277 292.918 247.277V248H284.266V247.277C285.346 247.277 286.069 247.082 286.434 246.691C286.798 246.288 286.98 245.324 286.98 243.801V231.379ZM298.074 236.848C298.061 239.504 298.706 241.587 300.008 243.098C301.31 244.608 302.84 245.363 304.598 245.363C305.77 245.363 306.785 245.044 307.645 244.406C308.517 243.755 309.246 242.648 309.832 241.086L310.438 241.477C310.164 243.26 309.37 244.888 308.055 246.359C306.74 247.818 305.092 248.547 303.113 248.547C300.965 248.547 299.122 247.714 297.586 246.047C296.062 244.367 295.301 242.115 295.301 239.289C295.301 236.229 296.082 233.846 297.645 232.141C299.22 230.422 301.193 229.562 303.562 229.562C305.568 229.562 307.215 230.227 308.504 231.555C309.793 232.87 310.438 234.634 310.438 236.848H298.074ZM298.074 235.715H306.355C306.29 234.569 306.154 233.762 305.945 233.293C305.62 232.564 305.132 231.991 304.48 231.574C303.842 231.158 303.172 230.949 302.469 230.949C301.388 230.949 300.418 231.372 299.559 232.219C298.712 233.052 298.217 234.217 298.074 235.715ZM311.551 231.887L317.059 229.66H317.801V233.84C318.725 232.264 319.65 231.164 320.574 230.539C321.512 229.901 322.495 229.582 323.523 229.582C325.32 229.582 326.818 230.285 328.016 231.691C329.487 233.41 330.223 235.65 330.223 238.41C330.223 241.496 329.337 244.048 327.566 246.066C326.108 247.72 324.272 248.547 322.059 248.547C321.095 248.547 320.262 248.41 319.559 248.137C319.038 247.941 318.452 247.551 317.801 246.965V252.414C317.801 253.638 317.872 254.413 318.016 254.738C318.172 255.077 318.432 255.344 318.797 255.539C319.174 255.734 319.852 255.832 320.828 255.832V256.555H311.453V255.832H311.941C312.658 255.845 313.27 255.708 313.777 255.422C314.025 255.279 314.214 255.044 314.344 254.719C314.487 254.406 314.559 253.599 314.559 252.297V235.383C314.559 234.224 314.507 233.488 314.402 233.176C314.298 232.863 314.129 232.629 313.895 232.473C313.673 232.316 313.367 232.238 312.977 232.238C312.664 232.238 312.267 232.329 311.785 232.512L311.551 231.887ZM317.801 234.992V241.672C317.801 243.117 317.859 244.068 317.977 244.523C318.159 245.279 318.602 245.943 319.305 246.516C320.021 247.089 320.919 247.375 322 247.375C323.302 247.375 324.357 246.867 325.164 245.852C326.219 244.523 326.746 242.655 326.746 240.246C326.746 237.512 326.147 235.409 324.949 233.938C324.116 232.922 323.126 232.414 321.98 232.414C321.355 232.414 320.737 232.57 320.125 232.883C319.656 233.117 318.882 233.82 317.801 234.992ZM348.035 241.203C347.553 243.56 346.609 245.376 345.203 246.652C343.797 247.915 342.241 248.547 340.535 248.547C338.504 248.547 336.733 247.694 335.223 245.988C333.712 244.283 332.957 241.978 332.957 239.074C332.957 236.262 333.79 233.977 335.457 232.219C337.137 230.461 339.148 229.582 341.492 229.582C343.25 229.582 344.695 230.051 345.828 230.988C346.961 231.913 347.527 232.876 347.527 233.879C347.527 234.374 347.365 234.777 347.039 235.09C346.727 235.389 346.284 235.539 345.711 235.539C344.943 235.539 344.363 235.292 343.973 234.797C343.751 234.523 343.602 234.003 343.523 233.234C343.458 232.466 343.198 231.88 342.742 231.477C342.286 231.086 341.655 230.891 340.848 230.891C339.546 230.891 338.497 231.372 337.703 232.336C336.648 233.612 336.121 235.298 336.121 237.395C336.121 239.53 336.642 241.418 337.684 243.059C338.738 244.686 340.158 245.5 341.941 245.5C343.217 245.5 344.363 245.064 345.379 244.191C346.095 243.592 346.792 242.505 347.469 240.93L348.035 241.203ZM359.363 229.582C362.072 229.582 364.246 230.611 365.887 232.668C367.28 234.426 367.977 236.444 367.977 238.723C367.977 240.324 367.592 241.945 366.824 243.586C366.056 245.227 364.995 246.464 363.641 247.297C362.299 248.13 360.802 248.547 359.148 248.547C356.453 248.547 354.311 247.473 352.723 245.324C351.382 243.514 350.711 241.483 350.711 239.23C350.711 237.59 351.115 235.962 351.922 234.348C352.742 232.72 353.816 231.522 355.145 230.754C356.473 229.973 357.879 229.582 359.363 229.582ZM358.758 230.852C358.068 230.852 357.371 231.06 356.668 231.477C355.978 231.88 355.418 232.596 354.988 233.625C354.559 234.654 354.344 235.975 354.344 237.59C354.344 240.194 354.858 242.44 355.887 244.328C356.928 246.216 358.296 247.16 359.988 247.16C361.251 247.16 362.293 246.639 363.113 245.598C363.934 244.556 364.344 242.766 364.344 240.227C364.344 237.049 363.66 234.549 362.293 232.727C361.368 231.477 360.19 230.852 358.758 230.852ZM376.199 238.098H383.934V234.309C383.934 233.176 383.888 232.44 383.797 232.102C383.706 231.75 383.478 231.457 383.113 231.223C382.762 230.975 382.13 230.852 381.219 230.852V230.109H389.871V230.852C389.064 230.852 388.471 230.943 388.094 231.125C387.729 231.307 387.482 231.574 387.352 231.926C387.221 232.264 387.156 233.059 387.156 234.309V243.801C387.156 244.934 387.202 245.682 387.293 246.047C387.397 246.411 387.638 246.711 388.016 246.945C388.393 247.167 389.012 247.277 389.871 247.277V248H381.219V247.277C382.299 247.277 383.022 247.082 383.387 246.691C383.751 246.288 383.934 245.324 383.934 243.801V239.367H376.199V243.801C376.199 244.934 376.245 245.682 376.336 246.047C376.44 246.411 376.681 246.711 377.059 246.945C377.436 247.167 378.055 247.277 378.914 247.277V248H370.262V247.277C371.421 247.277 372.163 247.069 372.488 246.652C372.814 246.223 372.977 245.272 372.977 243.801V234.309C372.977 233.176 372.924 232.427 372.82 232.062C372.729 231.698 372.495 231.405 372.117 231.184C371.74 230.962 371.121 230.852 370.262 230.852V230.109H378.914V230.852C378.107 230.852 377.514 230.943 377.137 231.125C376.772 231.307 376.525 231.574 376.395 231.926C376.264 232.264 376.199 233.059 376.199 234.309V238.098Z" fill="black"/>
<defs>
<clipPath id="clip0_34_257">
<rect x="584" y="275" width="105" height="110" rx="20" transform="rotate(-180 584 275)" fill="white"/>
</clipPath>
<clipPath id="clip1_34_257">
<rect x="418" width="105" height="110" rx="20" transform="rotate(90 418 0)" fill="white"/>
</clipPath>
<clipPath id="clip2_34_257">
<rect x="235" y="440" width="105" height="110" rx="20" transform="rotate(-90 235 440)" fill="white"/>
</clipPath>
<clipPath id="clip3_34_257">
<rect x="345" width="105" height="110" rx="20" transform="rotate(90 345 0)" fill="white"/>
</clipPath>
<clipPath id="clip4_34_257">
<rect x="268" width="105" height="110" rx="20" transform="rotate(90 268 0)" fill="white"/>
</clipPath>
<clipPath id="clip5_34_257">
<rect y="205" width="105" height="110" rx="20" fill="white"/>
</clipPath>
<clipPath id="clip6_34_257">
<rect y="128" width="105" height="110" rx="20" fill="white"/>
</clipPath>
</defs>
</svg>
