<svg width="457" height="464" viewBox="0 0 457 464" fill="none" xmlns="http://www.w3.org/2000/svg">
<rect x="120" y="123" width="218" height="218" fill="#CCB89B" fill-opacity="0.5" stroke="#4CB443" stroke-width="2"/>
<g clip-path="url(#clip0_25_203)">
<rect x="457" y="283" width="105" height="110" rx="20" transform="rotate(-180 457 283)" fill="white"/>
<rect x="457" y="283" width="29" height="147" transform="rotate(-180 457 283)" fill="#CCB89B" fill-opacity="0.8"/>
<rect x="457" y="283" width="140" height="147" transform="rotate(-180 457 283)" fill="#CCB89B" fill-opacity="0.4"/>
<rect x="281" y="283" width="24.5" height="147" transform="rotate(-90 281 283)" fill="#CCB89B" fill-opacity="0.8"/>
<rect x="281" y="197" width="24.5" height="147" transform="rotate(-90 281 197)" fill="#CCB89B" fill-opacity="0.8"/>
</g>
<g clip-path="url(#clip1_25_203)">
<rect y="177" width="105" height="110" rx="20" fill="white"/>
<rect y="177" width="29" height="147" fill="#CCB89B" fill-opacity="0.8"/>
<rect y="177" width="140" height="147" fill="#CCB89B" fill-opacity="0.4"/>
<rect x="176" y="177" width="24.5" height="147" transform="rotate(90 176 177)" fill="#CCB89B" fill-opacity="0.8"/>
<rect x="176" y="263" width="24.5" height="147" transform="rotate(90 176 263)" fill="#CCB89B" fill-opacity="0.8"/>
</g>
<g clip-path="url(#clip2_25_203)">
<rect x="284" width="105" height="110" rx="20" transform="rotate(90 284 0)" fill="white"/>
<rect x="284" width="29" height="147" transform="rotate(90 284 0)" fill="#CCB89B" fill-opacity="0.8"/>
<rect x="284" width="140" height="147" transform="rotate(90 284 0)" fill="#CCB89B" fill-opacity="0.4"/>
<rect x="284" y="176" width="24.5" height="147" transform="rotate(-180 284 176)" fill="#CCB89B" fill-opacity="0.8"/>
<rect x="198" y="176" width="24.5" height="147" transform="rotate(-180 198 176)" fill="#CCB89B" fill-opacity="0.8"/>
</g>
<g clip-path="url(#clip3_25_203)">
<rect x="174" y="464" width="105" height="110" rx="20" transform="rotate(-90 174 464)" fill="white"/>
<rect x="174" y="464" width="29" height="147" transform="rotate(-90 174 464)" fill="#CCB89B" fill-opacity="0.8"/>
<rect x="174" y="464" width="140" height="147" transform="rotate(-90 174 464)" fill="#CCB89B" fill-opacity="0.4"/>
<rect x="174" y="288" width="24.5" height="147" fill="#CCB89B" fill-opacity="0.8"/>
<rect x="260" y="288" width="24.5" height="147" fill="#CCB89B" fill-opacity="0.8"/>
</g>
<path d="M209.898 160.516L219.742 178.348V169.852C219.742 167.104 219.84 165.177 220.035 164.07C220.243 162.951 220.771 162.033 221.617 161.316C222.464 160.6 223.518 160.242 224.781 160.242C225.771 160.242 226.546 160.49 227.105 160.984C227.665 161.479 227.945 162.046 227.945 162.684C227.945 163.204 227.75 163.667 227.359 164.07C226.982 164.461 226.493 164.656 225.895 164.656C225.322 164.656 224.755 164.48 224.195 164.129C223.544 163.725 223.082 163.523 222.809 163.523C222.314 163.523 221.962 163.777 221.754 164.285C221.559 164.78 221.461 165.945 221.461 167.781V187.605H220.582L208.492 165.984V178.719C208.492 181.557 208.316 183.504 207.965 184.559C207.613 185.613 207.014 186.388 206.168 186.883C205.322 187.365 204.397 187.605 203.395 187.605C202.314 187.605 201.513 187.358 200.992 186.863C200.484 186.368 200.23 185.815 200.23 185.203C200.23 184.643 200.426 184.194 200.816 183.855C201.22 183.504 201.708 183.328 202.281 183.328C202.802 183.328 203.388 183.504 204.039 183.855C204.768 184.246 205.27 184.441 205.543 184.441C206.025 184.441 206.35 184.116 206.52 183.465C206.689 182.814 206.773 181.349 206.773 179.07V165.457C206.773 163.999 206.682 163.048 206.5 162.605C206.318 162.163 205.947 161.831 205.387 161.609C204.84 161.375 204.033 161.251 202.965 161.238V160.516H209.898ZM230.523 168.562C232.073 168.562 233.492 169.103 234.781 170.184C236.07 171.251 236.715 172.801 236.715 174.832C236.715 176.642 236.168 178.1 235.074 179.207C233.98 180.301 232.691 180.848 231.207 180.848C229.527 180.848 228.076 180.229 226.852 178.992C225.641 177.742 225.035 176.199 225.035 174.363C225.035 172.788 225.53 171.427 226.52 170.281C227.522 169.135 228.857 168.562 230.523 168.562ZM230.387 169.48C228.837 169.48 228.062 170.626 228.062 172.918C228.062 174.624 228.408 176.225 229.098 177.723C229.801 179.207 230.667 179.949 231.695 179.949C233.141 179.949 233.863 178.875 233.863 176.727C233.863 175.242 233.557 173.667 232.945 172C232.333 170.32 231.48 169.48 230.387 169.48ZM225.035 184.812H236.715V187H225.035V184.812ZM256.422 181.902L254.566 187H238.941V186.277C243.538 182.085 246.773 178.66 248.648 176.004C250.523 173.348 251.461 170.919 251.461 168.719C251.461 167.039 250.947 165.659 249.918 164.578C248.889 163.497 247.659 162.957 246.227 162.957C244.924 162.957 243.753 163.341 242.711 164.109C241.682 164.865 240.921 165.978 240.426 167.449H239.703C240.029 165.04 240.862 163.191 242.203 161.902C243.557 160.613 245.243 159.969 247.262 159.969C249.41 159.969 251.201 160.659 252.633 162.039C254.078 163.419 254.801 165.047 254.801 166.922C254.801 168.263 254.488 169.604 253.863 170.945C252.9 173.055 251.337 175.288 249.176 177.645C245.934 181.186 243.909 183.322 243.102 184.051H250.016C251.422 184.051 252.405 183.999 252.965 183.895C253.538 183.79 254.052 183.582 254.508 183.27C254.964 182.944 255.361 182.488 255.699 181.902H256.422ZM201.246 223.098H208.98V219.309C208.98 218.176 208.935 217.44 208.844 217.102C208.753 216.75 208.525 216.457 208.16 216.223C207.809 215.975 207.177 215.852 206.266 215.852V215.109H214.918V215.852C214.111 215.852 213.518 215.943 213.141 216.125C212.776 216.307 212.529 216.574 212.398 216.926C212.268 217.264 212.203 218.059 212.203 219.309V228.801C212.203 229.934 212.249 230.682 212.34 231.047C212.444 231.411 212.685 231.711 213.062 231.945C213.44 232.167 214.059 232.277 214.918 232.277V233H206.266V232.277C207.346 232.277 208.069 232.082 208.434 231.691C208.798 231.288 208.98 230.324 208.98 228.801V224.367H201.246V228.801C201.246 229.934 201.292 230.682 201.383 231.047C201.487 231.411 201.728 231.711 202.105 231.945C202.483 232.167 203.102 232.277 203.961 232.277V233H195.309V232.277C196.467 232.277 197.21 232.069 197.535 231.652C197.861 231.223 198.023 230.272 198.023 228.801V219.309C198.023 218.176 197.971 217.427 197.867 217.062C197.776 216.698 197.542 216.405 197.164 216.184C196.786 215.962 196.168 215.852 195.309 215.852V215.109H203.961V215.852C203.154 215.852 202.561 215.943 202.184 216.125C201.819 216.307 201.572 216.574 201.441 216.926C201.311 217.264 201.246 218.059 201.246 219.309V223.098ZM227.203 230.422C225.367 231.841 224.215 232.661 223.746 232.883C223.043 233.208 222.294 233.371 221.5 233.371C220.263 233.371 219.241 232.948 218.434 232.102C217.639 231.255 217.242 230.142 217.242 228.762C217.242 227.889 217.438 227.134 217.828 226.496C218.362 225.611 219.286 224.777 220.602 223.996C221.93 223.215 224.13 222.264 227.203 221.145V220.441C227.203 218.658 226.917 217.434 226.344 216.77C225.784 216.105 224.964 215.773 223.883 215.773C223.062 215.773 222.411 215.995 221.93 216.438C221.435 216.88 221.188 217.388 221.188 217.961L221.227 219.094C221.227 219.693 221.07 220.155 220.758 220.48C220.458 220.806 220.061 220.969 219.566 220.969C219.085 220.969 218.688 220.799 218.375 220.461C218.076 220.122 217.926 219.66 217.926 219.074C217.926 217.954 218.499 216.926 219.645 215.988C220.79 215.051 222.398 214.582 224.469 214.582C226.057 214.582 227.359 214.849 228.375 215.383C229.143 215.786 229.71 216.418 230.074 217.277C230.309 217.837 230.426 218.983 230.426 220.715V226.789C230.426 228.495 230.458 229.543 230.523 229.934C230.589 230.311 230.693 230.565 230.836 230.695C230.992 230.826 231.168 230.891 231.363 230.891C231.572 230.891 231.754 230.845 231.91 230.754C232.184 230.585 232.711 230.109 233.492 229.328V230.422C232.034 232.375 230.641 233.352 229.312 233.352C228.674 233.352 228.167 233.13 227.789 232.688C227.411 232.245 227.216 231.49 227.203 230.422ZM227.203 229.152V222.336C225.237 223.117 223.967 223.671 223.395 223.996C222.366 224.569 221.63 225.168 221.188 225.793C220.745 226.418 220.523 227.102 220.523 227.844C220.523 228.781 220.803 229.562 221.363 230.188C221.923 230.799 222.568 231.105 223.297 231.105C224.286 231.105 225.589 230.454 227.203 229.152ZM262.203 223.234V226.008H258.648V233H255.426V226.008H244.215V223.508L256.5 205.969H258.648V223.234H262.203ZM255.426 223.234V210.09L246.129 223.234H255.426ZM170.953 262.379H163.219V274.801C163.219 276.181 163.29 277.008 163.434 277.281C163.577 277.542 163.798 277.776 164.098 277.984C164.41 278.18 165.022 278.277 165.934 278.277V279H157.281V278.277C158.44 278.277 159.182 278.069 159.508 277.652C159.833 277.223 159.996 276.272 159.996 274.801V265.309C159.996 263.915 159.924 263.095 159.781 262.848C159.638 262.587 159.417 262.359 159.117 262.164C158.818 261.956 158.206 261.852 157.281 261.852V261.109H176.891V261.852C176.018 261.852 175.432 261.943 175.133 262.125C174.833 262.294 174.599 262.509 174.43 262.77C174.26 263.03 174.176 263.876 174.176 265.309V274.801C174.176 276.181 174.247 277.008 174.391 277.281C174.534 277.542 174.755 277.776 175.055 277.984C175.367 278.18 175.979 278.277 176.891 278.277V279H168.238V278.277C169.319 278.277 170.042 278.082 170.406 277.691C170.771 277.288 170.953 276.324 170.953 274.801V262.379ZM182.047 267.848C182.034 270.504 182.678 272.587 183.98 274.098C185.283 275.608 186.812 276.363 188.57 276.363C189.742 276.363 190.758 276.044 191.617 275.406C192.49 274.755 193.219 273.648 193.805 272.086L194.41 272.477C194.137 274.26 193.342 275.888 192.027 277.359C190.712 278.818 189.065 279.547 187.086 279.547C184.938 279.547 183.095 278.714 181.559 277.047C180.035 275.367 179.273 273.115 179.273 270.289C179.273 267.229 180.055 264.846 181.617 263.141C183.193 261.422 185.165 260.562 187.535 260.562C189.54 260.562 191.188 261.227 192.477 262.555C193.766 263.87 194.41 265.634 194.41 267.848H182.047ZM182.047 266.715H190.328C190.263 265.569 190.126 264.762 189.918 264.293C189.592 263.564 189.104 262.991 188.453 262.574C187.815 262.158 187.145 261.949 186.441 261.949C185.361 261.949 184.391 262.372 183.531 263.219C182.685 264.052 182.19 265.217 182.047 266.715ZM195.523 262.887L201.031 260.66H201.773V264.84C202.698 263.264 203.622 262.164 204.547 261.539C205.484 260.901 206.467 260.582 207.496 260.582C209.293 260.582 210.79 261.285 211.988 262.691C213.46 264.41 214.195 266.65 214.195 269.41C214.195 272.496 213.31 275.048 211.539 277.066C210.081 278.72 208.245 279.547 206.031 279.547C205.068 279.547 204.234 279.41 203.531 279.137C203.01 278.941 202.424 278.551 201.773 277.965V283.414C201.773 284.638 201.845 285.413 201.988 285.738C202.145 286.077 202.405 286.344 202.77 286.539C203.147 286.734 203.824 286.832 204.801 286.832V287.555H195.426V286.832H195.914C196.63 286.845 197.242 286.708 197.75 286.422C197.997 286.279 198.186 286.044 198.316 285.719C198.46 285.406 198.531 284.599 198.531 283.297V266.383C198.531 265.224 198.479 264.488 198.375 264.176C198.271 263.863 198.102 263.629 197.867 263.473C197.646 263.316 197.34 263.238 196.949 263.238C196.637 263.238 196.24 263.329 195.758 263.512L195.523 262.887ZM201.773 265.992V272.672C201.773 274.117 201.832 275.068 201.949 275.523C202.132 276.279 202.574 276.943 203.277 277.516C203.993 278.089 204.892 278.375 205.973 278.375C207.275 278.375 208.329 277.867 209.137 276.852C210.191 275.523 210.719 273.655 210.719 271.246C210.719 268.512 210.12 266.409 208.922 264.938C208.089 263.922 207.099 263.414 205.953 263.414C205.328 263.414 204.71 263.57 204.098 263.883C203.629 264.117 202.854 264.82 201.773 265.992ZM232.008 272.203C231.526 274.56 230.582 276.376 229.176 277.652C227.77 278.915 226.214 279.547 224.508 279.547C222.477 279.547 220.706 278.694 219.195 276.988C217.685 275.283 216.93 272.978 216.93 270.074C216.93 267.262 217.763 264.977 219.43 263.219C221.109 261.461 223.121 260.582 225.465 260.582C227.223 260.582 228.668 261.051 229.801 261.988C230.934 262.913 231.5 263.876 231.5 264.879C231.5 265.374 231.337 265.777 231.012 266.09C230.699 266.389 230.257 266.539 229.684 266.539C228.915 266.539 228.336 266.292 227.945 265.797C227.724 265.523 227.574 265.003 227.496 264.234C227.431 263.466 227.171 262.88 226.715 262.477C226.259 262.086 225.628 261.891 224.82 261.891C223.518 261.891 222.47 262.372 221.676 263.336C220.621 264.612 220.094 266.298 220.094 268.395C220.094 270.53 220.615 272.418 221.656 274.059C222.711 275.686 224.13 276.5 225.914 276.5C227.19 276.5 228.336 276.064 229.352 275.191C230.068 274.592 230.764 273.505 231.441 271.93L232.008 272.203ZM243.336 260.582C246.044 260.582 248.219 261.611 249.859 263.668C251.253 265.426 251.949 267.444 251.949 269.723C251.949 271.324 251.565 272.945 250.797 274.586C250.029 276.227 248.967 277.464 247.613 278.297C246.272 279.13 244.775 279.547 243.121 279.547C240.426 279.547 238.284 278.473 236.695 276.324C235.354 274.514 234.684 272.483 234.684 270.23C234.684 268.59 235.087 266.962 235.895 265.348C236.715 263.72 237.789 262.522 239.117 261.754C240.445 260.973 241.852 260.582 243.336 260.582ZM242.73 261.852C242.04 261.852 241.344 262.06 240.641 262.477C239.951 262.88 239.391 263.596 238.961 264.625C238.531 265.654 238.316 266.975 238.316 268.59C238.316 271.194 238.831 273.44 239.859 275.328C240.901 277.216 242.268 278.16 243.961 278.16C245.224 278.16 246.266 277.639 247.086 276.598C247.906 275.556 248.316 273.766 248.316 271.227C248.316 268.049 247.633 265.549 246.266 263.727C245.341 262.477 244.163 261.852 242.73 261.852ZM260.172 269.098H267.906V265.309C267.906 264.176 267.861 263.44 267.77 263.102C267.678 262.75 267.451 262.457 267.086 262.223C266.734 261.975 266.103 261.852 265.191 261.852V261.109H273.844V261.852C273.036 261.852 272.444 261.943 272.066 262.125C271.702 262.307 271.454 262.574 271.324 262.926C271.194 263.264 271.129 264.059 271.129 265.309V274.801C271.129 275.934 271.174 276.682 271.266 277.047C271.37 277.411 271.611 277.711 271.988 277.945C272.366 278.167 272.984 278.277 273.844 278.277V279H265.191V278.277C266.272 278.277 266.995 278.082 267.359 277.691C267.724 277.288 267.906 276.324 267.906 274.801V270.367H260.172V274.801C260.172 275.934 260.217 276.682 260.309 277.047C260.413 277.411 260.654 277.711 261.031 277.945C261.409 278.167 262.027 278.277 262.887 278.277V279H254.234V278.277C255.393 278.277 256.135 278.069 256.461 277.652C256.786 277.223 256.949 276.272 256.949 274.801V265.309C256.949 264.176 256.897 263.427 256.793 263.062C256.702 262.698 256.467 262.405 256.09 262.184C255.712 261.962 255.094 261.852 254.234 261.852V261.109H262.887V261.852C262.079 261.852 261.487 261.943 261.109 262.125C260.745 262.307 260.497 262.574 260.367 262.926C260.237 263.264 260.172 264.059 260.172 265.309V269.098ZM291.715 261.852V261.109H300.719V261.852C299.924 261.852 299.345 261.936 298.98 262.105C298.616 262.275 298.362 262.535 298.219 262.887C298.089 263.238 298.023 264.046 298.023 265.309V274.801C298.023 276.025 298.082 276.819 298.199 277.184C298.316 277.535 298.564 277.809 298.941 278.004C299.332 278.186 299.924 278.277 300.719 278.277V279H291.715V278.277C292.73 278.238 293.388 278.173 293.688 278.082C294 277.978 294.26 277.724 294.469 277.32C294.677 276.917 294.781 276.077 294.781 274.801V265.309C294.781 264.046 294.71 263.232 294.566 262.867C294.423 262.503 294.169 262.249 293.805 262.105C293.453 261.949 292.757 261.865 291.715 261.852ZM281.559 269.078L283.785 269.039C289.098 269.039 291.754 270.68 291.754 273.961C291.754 275.484 291.103 276.708 289.801 277.633C288.512 278.544 286.65 279 284.215 279H275.621V278.277C276.78 278.277 277.522 278.069 277.848 277.652C278.173 277.223 278.336 276.272 278.336 274.801V265.309C278.336 263.915 278.264 263.095 278.121 262.848C277.978 262.587 277.757 262.359 277.457 262.164C277.158 261.956 276.546 261.852 275.621 261.852V261.109H284.977V261.852C283.688 261.852 282.893 261.93 282.594 262.086C282.294 262.229 282.047 262.424 281.852 262.672C281.656 262.906 281.559 263.785 281.559 265.309V269.078ZM281.559 277.457C282.249 277.639 282.939 277.73 283.629 277.73C284.931 277.73 285.986 277.385 286.793 276.695C287.613 276.005 288.023 275.133 288.023 274.078C288.023 271.578 286.285 270.328 282.809 270.328C282.509 270.328 282.092 270.335 281.559 270.348V277.457Z" fill="black"/>
<defs>
<clipPath id="clip0_25_203">
<rect x="457" y="283" width="105" height="110" rx="20" transform="rotate(-180 457 283)" fill="white"/>
</clipPath>
<clipPath id="clip1_25_203">
<rect y="177" width="105" height="110" rx="20" fill="white"/>
</clipPath>
<clipPath id="clip2_25_203">
<rect x="284" width="105" height="110" rx="20" transform="rotate(90 284 0)" fill="white"/>
</clipPath>
<clipPath id="clip3_25_203">
<rect x="174" y="464" width="105" height="110" rx="20" transform="rotate(-90 174 464)" fill="white"/>
</clipPath>
</defs>
</svg>
